# xmcd
#
# Track frame offsets:
# 150
# 19575
# 33301
# 52577
# 70052
# 89553
# 107553
# 112278
# 129603
# 147603
# 164704
# 183155
# 208655
# 212406
# 221855
# 229730
# 243230
# 261305
# 289805
#
# Disc length: 4285 seconds
#
# Revision: 1
# Processed by: cddbd v1.5.1PL0 Copyright (c) Steve Scherf et al.
# Submitted via: CedeCatalogueitor 2.6.0.6 http://personales.ya.com/cdcatalogueitor
#
DISCID=2210bb13
DTITLE=Estopa - Concierto Principales Solidarios 2004
DYEAR=2004
DGENRE=
TTITLE0=Fin De Semana
TTITLE1=Cacho A Cacho
TTITLE2=Vino Tinto
TTITLE3=Apagón
TTITLE4=Tragicomedia
TTITLE5=Corazón Aerodinámico
TTITLE6=Ké Pasa!?
TTITLE7=Tanta Tinta Tonta
TTITLE8=Tu Calorro
TTITLE9=Ya No Me Acuerdo
TTITLE10=Estrella Fugaz
TTITLE11=Partiendo La Pana
TTITLE12=Ya No Tengo Corazón (Jota Aragonesa)
TTITLE13=El Del Medio De Los Chichos
TTITLE14=La Raja De Tu Falda
TTITLE15=Poquito A Poco
TTITLE16=Como Camarón
TTITLE17=Fuente De Energía
TTITLE18=Pastillas De Freno
EXTD=
EXTT0=
EXTT1=
EXTT2=
EXTT3=
EXTT4=
EXTT5=
EXTT6=
EXTT7=
EXTT8=
EXTT9=
EXTT10=
EXTT11=
EXTT12=
EXTT13=
EXTT14=
EXTT15=
EXTT16=
EXTT17=
EXTT18=
PLAYORDER=
